<svg xmlns="http://www.w3.org/2000/svg" xmlns:xlink="http://www.w3.org/1999/xlink" width="500" zoomAndPan="magnify" viewBox="0 0 375 358.49999" height="478" preserveAspectRatio="xMidYMid meet" version="1.0"><defs><clipPath id="7d2f0c1eb3"><path d="M 0.261719 0 L 374.738281 0 L 374.738281 358 L 0.261719 358 Z M 0.261719 0 " clip-rule="nonzero"/></clipPath><clipPath id="34545ae556"><path d="M 42 0 L 374.738281 0 L 374.738281 331 L 42 331 Z M 42 0 " clip-rule="nonzero"/></clipPath><clipPath id="7d5d1028ad"><path d="M 374.722656 284.808594 L 66.628906 358.117188 L -1.5625 71.519531 L 306.527344 -1.789062 Z M 374.722656 284.808594 " clip-rule="nonzero"/></clipPath><clipPath id="4ac89c5d46"><path d="M 784.507812 187.304688 L 68.015625 357.785156 L -52.175781 -147.34375 L 664.316406 -317.824219 Z M 784.507812 187.304688 " clip-rule="nonzero"/></clipPath><clipPath id="9096621936"><path d="M 784.507812 187.304688 L 68.015625 357.785156 L -52.175781 -147.34375 L 664.316406 -317.824219 Z M 784.507812 187.304688 " clip-rule="nonzero"/></clipPath><clipPath id="60e5f9053d"><path d="M 75 210 L 160 210 L 160 296 L 75 296 Z M 75 210 " clip-rule="nonzero"/></clipPath><clipPath id="61615ebd24"><path d="M 58.804688 256.257812 L 123.050781 195.566406 L 176.15625 251.777344 L 111.910156 312.472656 Z M 58.804688 256.257812 " clip-rule="nonzero"/></clipPath><clipPath id="23fd70aaa9"><path d="M 58.804688 256.257812 L 123.050781 195.566406 L 176.15625 251.777344 L 111.910156 312.472656 Z M 58.804688 256.257812 " clip-rule="nonzero"/></clipPath><clipPath id="aef9e96b7b"><rect x="0" width="375" y="0" height="358"/></clipPath></defs><g clip-path="url(#7d2f0c1eb3)"><g><g clip-path="url(#aef9e96b7b)"><g clip-path="url(#34545ae556)"><g clip-path="url(#7d5d1028ad)"><g clip-path="url(#4ac89c5d46)"><g clip-path="url(#9096621936)"><path fill="#ffffff" d="M 107.035156 200.226562 C 119.242188 188.730469 159.996094 213.78125 159.996094 213.78125 C 159.996094 213.78125 182.53125 255.90625 170.296875 267.394531 L 109.394531 324.609375 C 144.445312 337.191406 185.113281 330.183594 214.078125 302.980469 C 242.296875 276.464844 252.074219 237.738281 242.960938 202.796875 C 337.992188 95.125 442.886719 -3.410156 556.328125 -91.53125 C 590.703125 -80.273438 630.039062 -87.671875 658.265625 -114.179688 C 687.257812 -141.417969 696.703125 -181.511719 686.273438 -217.183594 L 625.378906 -159.96875 C 613.136719 -148.492188 572.390625 -173.554688 572.390625 -173.554688 C 572.390625 -173.554688 549.855469 -215.683594 562.074219 -227.160156 L 622.980469 -284.347656 C 587.964844 -296.941406 547.296875 -289.976562 518.308594 -262.746094 C 490.71875 -236.851562 480.835938 -199.292969 488.914062 -165 C 393.367188 -56.625 287.8125 42.464844 173.640625 131.089844 C 139.824219 120.96875 101.710938 128.523438 74.121094 154.398438 C 45.148438 181.613281 35.671875 221.730469 46.117188 257.417969 Z M 107.035156 200.226562 " fill-opacity="1" fill-rule="nonzero"/></g></g></g></g><g clip-path="url(#60e5f9053d)"><g clip-path="url(#61615ebd24)"><g clip-path="url(#23fd70aaa9)"><path fill="#ffffff" d="M 159.589844 266.636719 L 128.59375 295.921875 L 85.1875 284.128906 L 75.882812 240.125 L 106.878906 210.839844 L 150.285156 222.632812 Z M 159.589844 266.636719 " fill-opacity="1" fill-rule="nonzero"/></g></g></g></g></g></g></svg>