<svg xmlns="http://www.w3.org/2000/svg" xmlns:xlink="http://www.w3.org/1999/xlink" width="500" zoomAndPan="magnify" viewBox="0 0 375 374.999991" height="500" preserveAspectRatio="xMidYMid meet" version="1.0"><path fill="#ffffff" d="M 46.875 162.761719 C 46.875 112.796875 46.875 87.816406 52.773438 79.414062 C 58.671875 71.007812 82.160156 62.96875 129.140625 46.886719 L 138.089844 43.824219 C 162.578125 35.441406 174.820312 31.25 187.5 31.25 C 200.179688 31.25 212.421875 35.441406 236.910156 43.824219 L 245.859375 46.886719 C 292.839844 62.96875 316.328125 71.007812 322.226562 79.414062 C 328.125 87.816406 328.125 112.796875 328.125 162.761719 C 328.125 170.304688 328.125 178.492188 328.125 187.367188 C 328.125 275.460938 261.890625 318.210938 220.335938 336.363281 C 209.0625 341.289062 203.425781 343.75 187.5 343.75 C 171.574219 343.75 165.9375 341.289062 154.664062 336.363281 C 113.109375 318.210938 46.875 275.460938 46.875 187.367188 C 46.875 178.492188 46.875 170.304688 46.875 162.761719 Z M 46.875 162.761719 " fill-opacity="1" fill-rule="nonzero"/></svg>